<?xml version="1.0" encoding="UTF-8" standalone="no"?>
<!DOCTYPE svg PUBLIC "-//W3C//DTD SVG 1.1//EN" "http://www.w3.org/Graphics/SVG/1.1/DTD/svg11.dtd">
<svg xmlns="http://www.w3.org/2000/svg" version="1.1" viewBox="0.00 0.00 964.00 640.00">
<g stroke-width="2.00" fill="none" stroke-linecap="butt">
<path stroke="#80cccf" vector-effect="non-scaling-stroke" d="
  M 458.32 251.93
  Q 457.24 252.76 454.89 254.15
  Q 429.76 269.00 409.53 286.64
  A 1.43 1.43 0.0 0 1 407.53 286.52
  Q 406.70 285.59 404.82 284.60
  Q 381.81 272.48 359.16 281.30
  C 351.93 284.12 345.79 288.73 340.16 294.16
  Q 334.72 299.42 323.20 311.08
  C 320.48 313.83 318.82 316.57 318.94 320.04
  Q 319.05 323.28 321.76 325.97
  Q 332.25 336.38 333.17 337.37
  Q 337.11 341.61 342.06 340.55
  Q 347.45 339.40 349.00 334.28
  C 351.01 327.65 345.64 324.05 341.64 319.97
  A 0.62 0.61 -45.3 0 1 341.64 319.12
  Q 348.28 312.29 355.78 305.04
  Q 358.74 302.18 360.13 301.38
  Q 379.10 290.58 397.63 301.71
  A 3.45 2.88 -1.3 0 1 398.27 302.22
  Q 399.89 303.94 402.51 305.67
  A 1.59 1.46 84.4 0 1 402.80 305.93
  L 407.15 311.26
  A 0.78 0.69 14.9 0 1 407.25 311.41
  Q 417.93 330.85 407.20 348.22
  Q 404.70 352.27 398.85 357.98
  Q 396.78 359.99 389.73 367.10
  A 0.61 0.61 0.0 0 1 388.86 367.11
  Q 384.39 362.65 383.29 361.75
  C 379.95 358.99 375.23 358.27 371.58 361.12
  C 367.81 364.06 366.81 368.80 368.96 372.78
  Q 369.45 373.70 374.05 378.25
  Q 374.27 378.47 382.43 386.57
  Q 384.76 388.89 385.64 389.12
  Q 391.95 390.82 396.08 386.81
  Q 399.12 383.86 414.56 368.38
  Q 416.52 366.41 417.02 365.72
  C 418.85 363.21 420.99 361.04 422.56 358.55
  Q 434.21 340.12 429.73 318.84
  C 428.36 312.37 425.38 306.23 422.00 300.64
  A 0.63 0.62 54.0 0 1 422.12 299.85
  Q 434.05 289.56 447.16 280.69
  Q 455.38 275.13 476.55 262.69
  A 0.79 0.78 -45.4 0 1 477.33 262.68
  Q 502.20 276.63 524.86 294.65
  Q 534.33 302.19 539.31 307.22
  A 0.71 0.71 0.0 0 1 539.39 308.12
  Q 535.46 313.82 533.28 320.92
  Q 531.08 328.06 531.12 335.04
  Q 531.27 360.58 551.43 376.10
  C 565.26 386.74 584.49 388.90 600.85 382.09
  C 617.09 375.32 629.18 359.90 631.30 342.34
  C 633.36 325.35 627.26 308.28 614.07 297.34
  Q 607.01 291.48 599.66 288.77
  Q 575.83 279.96 553.92 293.56
  A 1.96 1.95 50.6 0 1 551.55 293.32
  C 534.88 277.68 516.11 264.31 496.44 252.48
  A 0.60 0.60 0.0 0 1 496.46 251.44
  C 522.44 237.13 547.77 221.50 569.84 201.84
  Q 577.09 195.38 582.11 189.14
  C 599.17 167.91 602.33 137.89 590.33 113.79
  C 569.76 72.48 516.61 61.11 481.11 90.60
  Q 478.29 92.94 477.50 93.61
  A 0.73 0.72 -45.3 0 1 476.58 93.62
  Q 468.15 86.74 466.38 85.62
  Q 444.90 71.95 419.74 74.52
  Q 408.84 75.63 398.57 80.28
  C 366.22 94.91 349.46 130.47 359.33 164.77
  C 363.61 179.67 371.82 190.62 383.38 201.13
  Q 397.03 213.54 411.94 223.55
  Q 433.86 238.28 458.29 251.50
  A 0.26 0.26 0.0 0 1 458.32 251.93"
/>
<path stroke="#9c9fa2" vector-effect="non-scaling-stroke" d="
  M 84.00 496.02
  C 84.02 528.17 103.90 553.27 136.29 557.31
  Q 151.03 559.15 164.48 555.38
  Q 178.88 551.35 188.74 542.14
  Q 197.72 533.75 202.41 521.59
  A 0.19 0.19 0.0 0 0 202.30 521.34
  L 180.02 512.78
  A 0.62 0.61 23.0 0 0 179.24 513.09
  Q 174.50 523.45 167.25 528.37
  Q 153.84 537.45 136.85 533.84
  C 118.67 529.96 109.00 514.00 108.99 496.01
  C 108.99 478.01 118.64 462.04 136.82 458.15
  Q 153.81 454.53 167.23 463.60
  Q 174.48 468.51 179.23 478.87
  A 0.62 0.61 -23.0 0 0 180.01 479.18
  L 202.28 470.60
  A 0.19 0.19 0.0 0 0 202.39 470.35
  Q 197.69 458.20 188.71 449.81
  Q 178.84 440.61 164.44 436.59
  Q 150.98 432.83 136.24 434.68
  C 103.86 438.75 83.99 463.86 84.00 496.02"
/>
<path stroke="#9c9fa2" vector-effect="non-scaling-stroke" d="
  M 541.35 471.34
  A 0.17 0.17 0.0 0 0 541.55 471.48
  L 565.26 466.06
  A 0.40 0.39 78.3 0 0 565.56 465.59
  Q 563.21 454.92 555.83 447.06
  C 554.35 445.49 553.30 445.09 551.72 443.68
  Q 550.56 442.63 548.35 441.39
  Q 536.28 434.62 521.79 434.13
  C 511.65 433.78 501.42 435.20 492.67 440.15
  Q 475.89 449.64 475.77 469.76
  Q 475.70 482.05 484.64 490.25
  C 489.65 494.84 495.03 497.07 501.69 499.79
  Q 505.41 501.31 509.40 502.49
  Q 519.65 505.50 526.66 508.17
  C 533.77 510.88 541.24 515.99 540.27 524.29
  Q 539.79 528.50 538.73 530.04
  Q 534.07 536.82 524.51 537.38
  C 511.06 538.17 499.49 531.90 497.60 517.84
  A 0.82 0.81 79.7 0 0 496.61 517.15
  L 472.83 522.58
  A 1.47 1.46 -15.5 0 0 471.76 524.46
  C 472.90 527.95 473.43 531.39 475.17 534.39
  Q 479.43 541.71 482.84 544.71
  Q 494.18 554.67 509.51 556.98
  C 529.98 560.05 557.99 555.81 564.77 532.31
  C 567.58 522.61 566.75 511.50 560.58 503.31
  Q 556.97 498.51 551.51 495.25
  Q 544.94 491.33 540.20 489.58
  Q 531.58 486.41 519.20 482.80
  C 512.25 480.78 501.19 476.97 501.18 468.56
  Q 501.17 459.47 509.56 456.31
  Q 517.75 453.22 526.61 455.25
  Q 532.73 456.65 536.39 461.03
  Q 540.09 465.45 541.35 471.34"
/>
<path stroke="#9c9fa2" vector-effect="non-scaling-stroke" d="
  M 268.13 547.44
  L 270.05 555.86
  A 0.51 0.51 0.0 0 0 270.55 556.26
  L 291.81 556.26
  A 0.87 0.86 83.8 0 0 292.65 555.20
  C 291.25 548.74 290.48 542.10 290.49 534.49
  Q 290.52 503.19 290.48 501.75
  Q 290.29 495.98 290.07 493.94
  C 289.38 487.79 286.12 479.98 280.83 476.02
  Q 277.50 473.53 274.99 472.53
  Q 264.76 468.46 253.11 468.85
  C 235.22 469.43 219.43 474.42 215.25 494.09
  A 0.70 0.69 -79.2 0 0 215.81 494.92
  L 235.42 498.37
  A 0.92 0.92 0.0 0 0 236.48 497.65
  Q 238.71 486.72 250.05 485.62
  C 255.47 485.09 262.54 485.65 265.78 490.64
  Q 268.09 494.18 267.20 497.72
  Q 266.32 501.22 261.89 502.40
  Q 254.06 504.48 246.74 506.00
  C 235.40 508.34 218.88 512.86 215.20 525.70
  C 211.46 538.73 215.97 552.77 230.24 556.49
  C 242.44 559.68 258.83 557.63 267.59 547.31
  A 0.31 0.31 0.0 0 1 268.13 547.44"
/>
<path stroke="#9c9fa2" vector-effect="non-scaling-stroke" d="
  M 396.31 518.00
  L 459.04 518.00
  A 0.36 0.36 0.0 0 0 459.40 517.66
  C 460.54 504.45 457.99 489.13 447.90 479.63
  Q 442.25 474.30 436.61 472.15
  C 418.38 465.21 391.80 468.14 380.06 486.04
  C 372.49 497.58 370.73 510.63 373.16 524.12
  C 377.67 549.14 400.26 560.24 424.01 557.55
  C 436.06 556.18 447.57 550.12 454.03 539.71
  Q 456.82 535.20 458.03 531.08
  A 0.42 0.41 12.2 0 0 457.69 530.56
  L 437.29 527.59
  A 1.63 1.62 17.1 0 0 435.58 528.49
  Q 431.50 536.76 422.21 538.49
  C 413.50 540.11 403.88 537.26 399.31 529.36
  Q 396.36 524.27 395.94 518.39
  A 0.37 0.36 -2.2 0 1 396.31 518.00"
/>
<path stroke="#9c9fa2" vector-effect="non-scaling-stroke" d="
  M 703.71 555.67
  Q 703.79 543.33 703.76 510.05
  Q 703.75 502.04 706.62 496.72
  C 710.94 488.68 721.05 486.67 729.30 489.17
  C 736.27 491.27 738.23 498.06 738.25 504.25
  Q 738.32 529.44 738.24 555.69
  A 0.56 0.56 0.0 0 0 738.80 556.26
  L 762.01 556.26
  A 0.50 0.49 -90.0 0 0 762.50 555.76
  Q 762.52 528.55 762.47 501.50
  Q 762.46 497.34 762.09 494.03
  Q 760.00 475.39 742.73 470.56
  Q 725.10 465.62 709.08 474.96
  A 0.63 0.57 -81.4 0 0 708.92 475.09
  L 704.21 479.80
  A 0.27 0.27 0.0 0 1 703.75 479.61
  L 703.75 471.00
  A 0.50 0.50 0.0 0 0 703.25 470.50
  L 680.56 470.50
  A 0.81 0.80 -0.0 0 0 679.75 471.30
  L 679.75 555.70
  A 0.56 0.55 0.0 0 0 680.31 556.25
  L 703.12 556.25
  A 0.59 0.58 -0.0 0 0 703.71 555.67"
/>
<path stroke="#9c9fa2" vector-effect="non-scaling-stroke" d="
  M 778.53 513.30
  C 778.53 532.53 789.12 548.99 807.79 555.07
  C 830.99 562.64 860.29 554.38 866.12 527.70
  A 1.35 1.35 0.0 0 0 864.94 526.07
  L 845.03 523.91
  A 0.73 0.72 -78.1 0 0 844.27 524.41
  C 842.04 531.23 837.75 536.68 830.37 538.09
  Q 812.02 541.62 804.85 525.64
  Q 802.55 520.50 802.55 513.31
  Q 802.55 506.12 804.86 500.98
  Q 812.04 485.01 830.39 488.55
  C 837.77 489.97 842.05 495.42 844.28 502.24
  A 0.73 0.72 78.1 0 0 845.04 502.74
  L 864.95 500.59
  A 1.35 1.35 0.0 0 0 866.13 498.97
  C 860.32 472.28 831.02 464.00 807.82 471.55
  C 789.15 477.63 778.54 494.08 778.53 513.30"
/>
<path stroke="#9c9fa2" vector-effect="non-scaling-stroke" d="
  M 336.75 483.56
  L 336.75 470.79
  A 0.29 0.29 0.0 0 0 336.46 470.50
  L 314.51 470.50
  A 0.76 0.75 0.0 0 0 313.75 471.25
  L 313.75 555.79
  A 0.47 0.46 0.0 0 0 314.22 556.25
  L 337.39 556.25
  A 0.60 0.60 0.0 0 0 337.99 555.65
  Q 338.02 529.80 337.99 516.00
  C 337.98 510.33 338.47 503.84 342.00 498.90
  C 345.81 493.58 352.72 491.62 359.27 491.23
  Q 364.23 490.94 364.50 490.96
  A 0.45 0.45 0.0 0 0 365.00 490.51
  L 365.00 470.13
  A 0.56 0.56 0.0 0 0 364.42 469.57
  Q 349.19 469.95 338.72 481.27
  Q 338.16 481.86 337.44 483.69
  A 0.36 0.36 0.0 0 1 336.75 483.56"
/>
<path stroke="#9c9fa2" vector-effect="non-scaling-stroke" d="
  M 614.21 595.97
  A 0.35 0.35 0.0 0 0 614.53 595.76
  L 666.85 470.99
  A 0.35 0.35 0.0 0 0 666.52 470.50
  L 642.66 470.50
  A 0.35 0.35 0.0 0 0 642.33 470.72
  L 621.06 526.07
  A 0.35 0.35 0.0 0 1 620.40 526.07
  L 600.37 470.72
  A 0.35 0.35 0.0 0 0 600.04 470.49
  L 574.62 470.49
  A 0.35 0.35 0.0 0 0 574.30 470.98
  L 609.32 552.63
  A 0.35 0.35 0.0 0 1 609.32 552.91
  L 590.30 595.48
  A 0.35 0.35 0.0 0 0 590.62 595.97
  L 614.21 595.97"
/>
<path stroke="#80cccf" vector-effect="non-scaling-stroke" d="
  M 477.10 240.78
  Q 477.64 240.78 477.91 240.64
  Q 497.89 229.66 517.94 217.40
  Q 539.89 203.97 559.15 186.67
  C 570.51 176.46 577.89 164.22 578.97 148.96
  C 581.68 110.66 544.62 82.71 508.47 95.68
  Q 499.36 98.95 490.57 106.80
  C 486.43 110.50 483.40 117.45 477.05 117.45
  C 470.69 117.45 467.66 110.51 463.52 106.81
  Q 454.72 98.97 445.61 95.71
  C 409.45 82.77 372.41 110.75 375.15 149.05
  C 376.24 164.31 383.63 176.54 395.00 186.74
  Q 414.28 204.02 436.24 217.43
  Q 456.30 229.68 476.29 240.64
  Q 476.56 240.78 477.10 240.78"
/>
<path stroke="#80cccf" vector-effect="non-scaling-stroke" d="
  M 613.28 335.66
  A 31.85 31.85 0.0 0 0 581.43 303.81
  A 31.85 31.85 0.0 0 0 549.58 335.66
  A 31.85 31.85 0.0 0 0 581.43 367.51
  A 31.85 31.85 0.0 0 0 613.28 335.66"
/>
<path stroke="#80cccf" vector-effect="non-scaling-stroke" d="
  M 593.77 335.71
  A 12.35 12.35 0.0 0 0 581.42 323.36
  A 12.35 12.35 0.0 0 0 569.07 335.71
  A 12.35 12.35 0.0 0 0 581.42 348.06
  A 12.35 12.35 0.0 0 0 593.77 335.71"
/>
<path stroke="#9c9fa2" vector-effect="non-scaling-stroke" d="
  M 268.28 517.17
  Q 258.04 520.13 244.89 523.84
  C 239.46 525.38 236.11 528.59 237.03 534.43
  C 237.61 538.14 241.38 540.88 244.93 541.35
  C 260.24 543.37 269.31 531.59 268.50 517.32
  A 0.17 0.17 0.0 0 0 268.28 517.17"
/>
<path stroke="#9c9fa2" vector-effect="non-scaling-stroke" d="
  M 396.60 501.29
  A 0.63 0.62 -74.4 0 0 397.13 502.24
  L 435.36 502.25
  A 0.49 0.49 0.0 0 0 435.85 501.68
  C 434.63 494.21 430.54 488.20 422.78 486.42
  C 413.27 484.24 402.07 487.16 398.28 497.03
  Q 396.74 501.05 396.60 501.29"
/>
</g>
<path fill="#ffffff" d="
  M 964.00 0.00
  L 964.00 640.00
  L 0.00 640.00
  L 0.00 0.00
  L 964.00 0.00
  Z
  M 458.32 251.93
  Q 457.24 252.76 454.89 254.15
  Q 429.76 269.00 409.53 286.64
  A 1.43 1.43 0.0 0 1 407.53 286.52
  Q 406.70 285.59 404.82 284.60
  Q 381.81 272.48 359.16 281.30
  C 351.93 284.12 345.79 288.73 340.16 294.16
  Q 334.72 299.42 323.20 311.08
  C 320.48 313.83 318.82 316.57 318.94 320.04
  Q 319.05 323.28 321.76 325.97
  Q 332.25 336.38 333.17 337.37
  Q 337.11 341.61 342.06 340.55
  Q 347.45 339.40 349.00 334.28
  C 351.01 327.65 345.64 324.05 341.64 319.97
  A 0.62 0.61 -45.3 0 1 341.64 319.12
  Q 348.28 312.29 355.78 305.04
  Q 358.74 302.18 360.13 301.38
  Q 379.10 290.58 397.63 301.71
  A 3.45 2.88 -1.3 0 1 398.27 302.22
  Q 399.89 303.94 402.51 305.67
  A 1.59 1.46 84.4 0 1 402.80 305.93
  L 407.15 311.26
  A 0.78 0.69 14.9 0 1 407.25 311.41
  Q 417.93 330.85 407.20 348.22
  Q 404.70 352.27 398.85 357.98
  Q 396.78 359.99 389.73 367.10
  A 0.61 0.61 0.0 0 1 388.86 367.11
  Q 384.39 362.65 383.29 361.75
  C 379.95 358.99 375.23 358.27 371.58 361.12
  C 367.81 364.06 366.81 368.80 368.96 372.78
  Q 369.45 373.70 374.05 378.25
  Q 374.27 378.47 382.43 386.57
  Q 384.76 388.89 385.64 389.12
  Q 391.95 390.82 396.08 386.81
  Q 399.12 383.86 414.56 368.38
  Q 416.52 366.41 417.02 365.72
  C 418.85 363.21 420.99 361.04 422.56 358.55
  Q 434.21 340.12 429.73 318.84
  C 428.36 312.37 425.38 306.23 422.00 300.64
  A 0.63 0.62 54.0 0 1 422.12 299.85
  Q 434.05 289.56 447.16 280.69
  Q 455.38 275.13 476.55 262.69
  A 0.79 0.78 -45.4 0 1 477.33 262.68
  Q 502.20 276.63 524.86 294.65
  Q 534.33 302.19 539.31 307.22
  A 0.71 0.71 0.0 0 1 539.39 308.12
  Q 535.46 313.82 533.28 320.92
  Q 531.08 328.06 531.12 335.04
  Q 531.27 360.58 551.43 376.10
  C 565.26 386.74 584.49 388.90 600.85 382.09
  C 617.09 375.32 629.18 359.90 631.30 342.34
  C 633.36 325.35 627.26 308.28 614.07 297.34
  Q 607.01 291.48 599.66 288.77
  Q 575.83 279.96 553.92 293.56
  A 1.96 1.95 50.6 0 1 551.55 293.32
  C 534.88 277.68 516.11 264.31 496.44 252.48
  A 0.60 0.60 0.0 0 1 496.46 251.44
  C 522.44 237.13 547.77 221.50 569.84 201.84
  Q 577.09 195.38 582.11 189.14
  C 599.17 167.91 602.33 137.89 590.33 113.79
  C 569.76 72.48 516.61 61.11 481.11 90.60
  Q 478.29 92.94 477.50 93.61
  A 0.73 0.72 -45.3 0 1 476.58 93.62
  Q 468.15 86.74 466.38 85.62
  Q 444.90 71.95 419.74 74.52
  Q 408.84 75.63 398.57 80.28
  C 366.22 94.91 349.46 130.47 359.33 164.77
  C 363.61 179.67 371.82 190.62 383.38 201.13
  Q 397.03 213.54 411.94 223.55
  Q 433.86 238.28 458.29 251.50
  A 0.26 0.26 0.0 0 1 458.32 251.93
  Z
  M 84.00 496.02
  C 84.02 528.17 103.90 553.27 136.29 557.31
  Q 151.03 559.15 164.48 555.38
  Q 178.88 551.35 188.74 542.14
  Q 197.72 533.75 202.41 521.59
  A 0.19 0.19 0.0 0 0 202.30 521.34
  L 180.02 512.78
  A 0.62 0.61 23.0 0 0 179.24 513.09
  Q 174.50 523.45 167.25 528.37
  Q 153.84 537.45 136.85 533.84
  C 118.67 529.96 109.00 514.00 108.99 496.01
  C 108.99 478.01 118.64 462.04 136.82 458.15
  Q 153.81 454.53 167.23 463.60
  Q 174.48 468.51 179.23 478.87
  A 0.62 0.61 -23.0 0 0 180.01 479.18
  L 202.28 470.60
  A 0.19 0.19 0.0 0 0 202.39 470.35
  Q 197.69 458.20 188.71 449.81
  Q 178.84 440.61 164.44 436.59
  Q 150.98 432.83 136.24 434.68
  C 103.86 438.75 83.99 463.86 84.00 496.02
  Z
  M 541.35 471.34
  A 0.17 0.17 0.0 0 0 541.55 471.48
  L 565.26 466.06
  A 0.40 0.39 78.3 0 0 565.56 465.59
  Q 563.21 454.92 555.83 447.06
  C 554.35 445.49 553.30 445.09 551.72 443.68
  Q 550.56 442.63 548.35 441.39
  Q 536.28 434.62 521.79 434.13
  C 511.65 433.78 501.42 435.20 492.67 440.15
  Q 475.89 449.64 475.77 469.76
  Q 475.70 482.05 484.64 490.25
  C 489.65 494.84 495.03 497.07 501.69 499.79
  Q 505.41 501.31 509.40 502.49
  Q 519.65 505.50 526.66 508.17
  C 533.77 510.88 541.24 515.99 540.27 524.29
  Q 539.79 528.50 538.73 530.04
  Q 534.07 536.82 524.51 537.38
  C 511.06 538.17 499.49 531.90 497.60 517.84
  A 0.82 0.81 79.7 0 0 496.61 517.15
  L 472.83 522.58
  A 1.47 1.46 -15.5 0 0 471.76 524.46
  C 472.90 527.95 473.43 531.39 475.17 534.39
  Q 479.43 541.71 482.84 544.71
  Q 494.18 554.67 509.51 556.98
  C 529.98 560.05 557.99 555.81 564.77 532.31
  C 567.58 522.61 566.75 511.50 560.58 503.31
  Q 556.97 498.51 551.51 495.25
  Q 544.94 491.33 540.20 489.58
  Q 531.58 486.41 519.20 482.80
  C 512.25 480.78 501.19 476.97 501.18 468.56
  Q 501.17 459.47 509.56 456.31
  Q 517.75 453.22 526.61 455.25
  Q 532.73 456.65 536.39 461.03
  Q 540.09 465.45 541.35 471.34
  Z
  M 268.13 547.44
  L 270.05 555.86
  A 0.51 0.51 0.0 0 0 270.55 556.26
  L 291.81 556.26
  A 0.87 0.86 83.8 0 0 292.65 555.20
  C 291.25 548.74 290.48 542.10 290.49 534.49
  Q 290.52 503.19 290.48 501.75
  Q 290.29 495.98 290.07 493.94
  C 289.38 487.79 286.12 479.98 280.83 476.02
  Q 277.50 473.53 274.99 472.53
  Q 264.76 468.46 253.11 468.85
  C 235.22 469.43 219.43 474.42 215.25 494.09
  A 0.70 0.69 -79.2 0 0 215.81 494.92
  L 235.42 498.37
  A 0.92 0.92 0.0 0 0 236.48 497.65
  Q 238.71 486.72 250.05 485.62
  C 255.47 485.09 262.54 485.65 265.78 490.64
  Q 268.09 494.18 267.20 497.72
  Q 266.32 501.22 261.89 502.40
  Q 254.06 504.48 246.74 506.00
  C 235.40 508.34 218.88 512.86 215.20 525.70
  C 211.46 538.73 215.97 552.77 230.24 556.49
  C 242.44 559.68 258.83 557.63 267.59 547.31
  A 0.31 0.31 0.0 0 1 268.13 547.44
  Z
  M 396.31 518.00
  L 459.04 518.00
  A 0.36 0.36 0.0 0 0 459.40 517.66
  C 460.54 504.45 457.99 489.13 447.90 479.63
  Q 442.25 474.30 436.61 472.15
  C 418.38 465.21 391.80 468.14 380.06 486.04
  C 372.49 497.58 370.73 510.63 373.16 524.12
  C 377.67 549.14 400.26 560.24 424.01 557.55
  C 436.06 556.18 447.57 550.12 454.03 539.71
  Q 456.82 535.20 458.03 531.08
  A 0.42 0.41 12.2 0 0 457.69 530.56
  L 437.29 527.59
  A 1.63 1.62 17.1 0 0 435.58 528.49
  Q 431.50 536.76 422.21 538.49
  C 413.50 540.11 403.88 537.26 399.31 529.36
  Q 396.36 524.27 395.94 518.39
  A 0.37 0.36 -2.2 0 1 396.31 518.00
  Z
  M 703.71 555.67
  Q 703.79 543.33 703.76 510.05
  Q 703.75 502.04 706.62 496.72
  C 710.94 488.68 721.05 486.67 729.30 489.17
  C 736.27 491.27 738.23 498.06 738.25 504.25
  Q 738.32 529.44 738.24 555.69
  A 0.56 0.56 0.0 0 0 738.80 556.26
  L 762.01 556.26
  A 0.50 0.49 -90.0 0 0 762.50 555.76
  Q 762.52 528.55 762.47 501.50
  Q 762.46 497.34 762.09 494.03
  Q 760.00 475.39 742.73 470.56
  Q 725.10 465.62 709.08 474.96
  A 0.63 0.57 -81.4 0 0 708.92 475.09
  L 704.21 479.80
  A 0.27 0.27 0.0 0 1 703.75 479.61
  L 703.75 471.00
  A 0.50 0.50 0.0 0 0 703.25 470.50
  L 680.56 470.50
  A 0.81 0.80 -0.0 0 0 679.75 471.30
  L 679.75 555.70
  A 0.56 0.55 0.0 0 0 680.31 556.25
  L 703.12 556.25
  A 0.59 0.58 -0.0 0 0 703.71 555.67
  Z
  M 778.53 513.30
  C 778.53 532.53 789.12 548.99 807.79 555.07
  C 830.99 562.64 860.29 554.38 866.12 527.70
  A 1.35 1.35 0.0 0 0 864.94 526.07
  L 845.03 523.91
  A 0.73 0.72 -78.1 0 0 844.27 524.41
  C 842.04 531.23 837.75 536.68 830.37 538.09
  Q 812.02 541.62 804.85 525.64
  Q 802.55 520.50 802.55 513.31
  Q 802.55 506.12 804.86 500.98
  Q 812.04 485.01 830.39 488.55
  C 837.77 489.97 842.05 495.42 844.28 502.24
  A 0.73 0.72 78.1 0 0 845.04 502.74
  L 864.95 500.59
  A 1.35 1.35 0.0 0 0 866.13 498.97
  C 860.32 472.28 831.02 464.00 807.82 471.55
  C 789.15 477.63 778.54 494.08 778.53 513.30
  Z
  M 336.75 483.56
  L 336.75 470.79
  A 0.29 0.29 0.0 0 0 336.46 470.50
  L 314.51 470.50
  A 0.76 0.75 0.0 0 0 313.75 471.25
  L 313.75 555.79
  A 0.47 0.46 0.0 0 0 314.22 556.25
  L 337.39 556.25
  A 0.60 0.60 0.0 0 0 337.99 555.65
  Q 338.02 529.80 337.99 516.00
  C 337.98 510.33 338.47 503.84 342.00 498.90
  C 345.81 493.58 352.72 491.62 359.27 491.23
  Q 364.23 490.94 364.50 490.96
  A 0.45 0.45 0.0 0 0 365.00 490.51
  L 365.00 470.13
  A 0.56 0.56 0.0 0 0 364.42 469.57
  Q 349.19 469.95 338.72 481.27
  Q 338.16 481.86 337.44 483.69
  A 0.36 0.36 0.0 0 1 336.75 483.56
  Z
  M 614.21 595.97
  A 0.35 0.35 0.0 0 0 614.53 595.76
  L 666.85 470.99
  A 0.35 0.35 0.0 0 0 666.52 470.50
  L 642.66 470.50
  A 0.35 0.35 0.0 0 0 642.33 470.72
  L 621.06 526.07
  A 0.35 0.35 0.0 0 1 620.40 526.07
  L 600.37 470.72
  A 0.35 0.35 0.0 0 0 600.04 470.49
  L 574.62 470.49
  A 0.35 0.35 0.0 0 0 574.30 470.98
  L 609.32 552.63
  A 0.35 0.35 0.0 0 1 609.32 552.91
  L 590.30 595.48
  A 0.35 0.35 0.0 0 0 590.62 595.97
  L 614.21 595.97
  Z"
/>
<path fill="#00989e" d="
  M 458.32 251.93
  A 0.26 0.26 0.0 0 0 458.29 251.50
  Q 433.86 238.28 411.94 223.55
  Q 397.03 213.54 383.38 201.13
  C 371.82 190.62 363.61 179.67 359.33 164.77
  C 349.46 130.47 366.22 94.91 398.57 80.28
  Q 408.84 75.63 419.74 74.52
  Q 444.90 71.95 466.38 85.62
  Q 468.15 86.74 476.58 93.62
  A 0.73 0.72 -45.3 0 0 477.50 93.61
  Q 478.29 92.94 481.11 90.60
  C 516.61 61.11 569.76 72.48 590.33 113.79
  C 602.33 137.89 599.17 167.91 582.11 189.14
  Q 577.09 195.38 569.84 201.84
  C 547.77 221.50 522.44 237.13 496.46 251.44
  A 0.60 0.60 0.0 0 0 496.44 252.48
  C 516.11 264.31 534.88 277.68 551.55 293.32
  A 1.96 1.95 50.6 0 0 553.92 293.56
  Q 575.83 279.96 599.66 288.77
  Q 607.01 291.48 614.07 297.34
  C 627.26 308.28 633.36 325.35 631.30 342.34
  C 629.18 359.90 617.09 375.32 600.85 382.09
  C 584.49 388.90 565.26 386.74 551.43 376.10
  Q 531.27 360.58 531.12 335.04
  Q 531.08 328.06 533.28 320.92
  Q 535.46 313.82 539.39 308.12
  A 0.71 0.71 0.0 0 0 539.31 307.22
  Q 534.33 302.19 524.86 294.65
  Q 502.20 276.63 477.33 262.68
  A 0.79 0.78 -45.4 0 0 476.55 262.69
  Q 455.38 275.13 447.16 280.69
  Q 434.05 289.56 422.12 299.85
  A 0.63 0.62 54.0 0 0 422.00 300.64
  C 425.38 306.23 428.36 312.37 429.73 318.84
  Q 434.21 340.12 422.56 358.55
  C 420.99 361.04 418.85 363.21 417.02 365.72
  Q 416.52 366.41 414.56 368.38
  Q 399.12 383.86 396.08 386.81
  Q 391.95 390.82 385.64 389.12
  Q 384.76 388.89 382.43 386.57
  Q 374.27 378.47 374.05 378.25
  Q 369.45 373.70 368.96 372.78
  C 366.81 368.80 367.81 364.06 371.58 361.12
  C 375.23 358.27 379.95 358.99 383.29 361.75
  Q 384.39 362.65 388.86 367.11
  A 0.61 0.61 0.0 0 0 389.73 367.10
  Q 396.78 359.99 398.85 357.98
  Q 404.70 352.27 407.20 348.22
  Q 417.93 330.85 407.25 311.41
  A 0.78 0.69 14.9 0 0 407.15 311.26
  L 402.80 305.93
  A 1.59 1.46 84.4 0 0 402.51 305.67
  Q 399.89 303.94 398.27 302.22
  A 3.45 2.88 -1.3 0 0 397.63 301.71
  Q 379.10 290.58 360.13 301.38
  Q 358.74 302.18 355.78 305.04
  Q 348.28 312.29 341.64 319.12
  A 0.62 0.61 -45.3 0 0 341.64 319.97
  C 345.64 324.05 351.01 327.65 349.00 334.28
  Q 347.45 339.40 342.06 340.55
  Q 337.11 341.61 333.17 337.37
  Q 332.25 336.38 321.76 325.97
  Q 319.05 323.28 318.94 320.04
  C 318.82 316.57 320.48 313.83 323.20 311.08
  Q 334.72 299.42 340.16 294.16
  C 345.79 288.73 351.93 284.12 359.16 281.30
  Q 381.81 272.48 404.82 284.60
  Q 406.70 285.59 407.53 286.52
  A 1.43 1.43 0.0 0 0 409.53 286.64
  Q 429.76 269.00 454.89 254.15
  Q 457.24 252.76 458.32 251.93
  Z
  M 477.10 240.78
  Q 477.64 240.78 477.91 240.64
  Q 497.89 229.66 517.94 217.40
  Q 539.89 203.97 559.15 186.67
  C 570.51 176.46 577.89 164.22 578.97 148.96
  C 581.68 110.66 544.62 82.71 508.47 95.68
  Q 499.36 98.95 490.57 106.80
  C 486.43 110.50 483.40 117.45 477.05 117.45
  C 470.69 117.45 467.66 110.51 463.52 106.81
  Q 454.72 98.97 445.61 95.71
  C 409.45 82.77 372.41 110.75 375.15 149.05
  C 376.24 164.31 383.63 176.54 395.00 186.74
  Q 414.28 204.02 436.24 217.43
  Q 456.30 229.68 476.29 240.64
  Q 476.56 240.78 477.10 240.78
  Z
  M 613.28 335.66
  A 31.85 31.85 0.0 0 0 581.43 303.81
  A 31.85 31.85 0.0 0 0 549.58 335.66
  A 31.85 31.85 0.0 0 0 581.43 367.51
  A 31.85 31.85 0.0 0 0 613.28 335.66
  Z"
/>
<path fill="#ffffff" d="
  M 477.05 117.45
  C 483.40 117.45 486.43 110.50 490.57 106.80
  Q 499.36 98.95 508.47 95.68
  C 544.62 82.71 581.68 110.66 578.97 148.96
  C 577.89 164.22 570.51 176.46 559.15 186.67
  Q 539.89 203.97 517.94 217.40
  Q 497.89 229.66 477.91 240.64
  Q 477.64 240.78 477.10 240.78
  Q 476.56 240.78 476.29 240.64
  Q 456.30 229.68 436.24 217.43
  Q 414.28 204.02 395.00 186.74
  C 383.63 176.54 376.24 164.31 375.15 149.05
  C 372.41 110.75 409.45 82.77 445.61 95.71
  Q 454.72 98.97 463.52 106.81
  C 467.66 110.51 470.69 117.45 477.05 117.45
  Z"
/>
<path fill="#ffffff" d="
  M 613.28 335.66
  A 31.85 31.85 0.0 0 1 581.43 367.51
  A 31.85 31.85 0.0 0 1 549.58 335.66
  A 31.85 31.85 0.0 0 1 581.43 303.81
  A 31.85 31.85 0.0 0 1 613.28 335.66
  Z
  M 593.77 335.71
  A 12.35 12.35 0.0 0 0 581.42 323.36
  A 12.35 12.35 0.0 0 0 569.07 335.71
  A 12.35 12.35 0.0 0 0 581.42 348.06
  A 12.35 12.35 0.0 0 0 593.77 335.71
  Z"
/>
<circle fill="#00989e" cx="581.42" cy="335.71" r="12.35"/>
<path fill="#393e45" d="
  M 108.99 496.01
  C 109.00 514.00 118.67 529.96 136.85 533.84
  Q 153.84 537.45 167.25 528.37
  Q 174.50 523.45 179.24 513.09
  A 0.62 0.61 23.0 0 1 180.02 512.78
  L 202.30 521.34
  A 0.19 0.19 0.0 0 1 202.41 521.59
  Q 197.72 533.75 188.74 542.14
  Q 178.88 551.35 164.48 555.38
  Q 151.03 559.15 136.29 557.31
  C 103.90 553.27 84.02 528.17 84.00 496.02
  C 83.99 463.86 103.86 438.75 136.24 434.68
  Q 150.98 432.83 164.44 436.59
  Q 178.84 440.61 188.71 449.81
  Q 197.69 458.20 202.39 470.35
  A 0.19 0.19 0.0 0 1 202.28 470.60
  L 180.01 479.18
  A 0.62 0.61 -23.0 0 1 179.23 478.87
  Q 174.48 468.51 167.23 463.60
  Q 153.81 454.53 136.82 458.15
  C 118.64 462.04 108.99 478.01 108.99 496.01
  Z"
/>
<path fill="#393e45" d="
  M 541.35 471.34
  Q 540.09 465.45 536.39 461.03
  Q 532.73 456.65 526.61 455.25
  Q 517.75 453.22 509.56 456.31
  Q 501.17 459.47 501.18 468.56
  C 501.19 476.97 512.25 480.78 519.20 482.80
  Q 531.58 486.41 540.20 489.58
  Q 544.94 491.33 551.51 495.25
  Q 556.97 498.51 560.58 503.31
  C 566.75 511.50 567.58 522.61 564.77 532.31
  C 557.99 555.81 529.98 560.05 509.51 556.98
  Q 494.18 554.67 482.84 544.71
  Q 479.43 541.71 475.17 534.39
  C 473.43 531.39 472.90 527.95 471.76 524.46
  A 1.47 1.46 -15.5 0 1 472.83 522.58
  L 496.61 517.15
  A 0.82 0.81 79.7 0 1 497.60 517.84
  C 499.49 531.90 511.06 538.17 524.51 537.38
  Q 534.07 536.82 538.73 530.04
  Q 539.79 528.50 540.27 524.29
  C 541.24 515.99 533.77 510.88 526.66 508.17
  Q 519.65 505.50 509.40 502.49
  Q 505.41 501.31 501.69 499.79
  C 495.03 497.07 489.65 494.84 484.64 490.25
  Q 475.70 482.05 475.77 469.76
  Q 475.89 449.64 492.67 440.15
  C 501.42 435.20 511.65 433.78 521.79 434.13
  Q 536.28 434.62 548.35 441.39
  Q 550.56 442.63 551.72 443.68
  C 553.30 445.09 554.35 445.49 555.83 447.06
  Q 563.21 454.92 565.56 465.59
  A 0.40 0.39 78.3 0 1 565.26 466.06
  L 541.55 471.48
  A 0.17 0.17 0.0 0 1 541.35 471.34
  Z"
/>
<path fill="#393e45" d="
  M 268.13 547.44
  A 0.31 0.31 0.0 0 0 267.59 547.31
  C 258.83 557.63 242.44 559.68 230.24 556.49
  C 215.97 552.77 211.46 538.73 215.20 525.70
  C 218.88 512.86 235.40 508.34 246.74 506.00
  Q 254.06 504.48 261.89 502.40
  Q 266.32 501.22 267.20 497.72
  Q 268.09 494.18 265.78 490.64
  C 262.54 485.65 255.47 485.09 250.05 485.62
  Q 238.71 486.72 236.48 497.65
  A 0.92 0.92 0.0 0 1 235.42 498.37
  L 215.81 494.92
  A 0.70 0.69 -79.2 0 1 215.25 494.09
  C 219.43 474.42 235.22 469.43 253.11 468.85
  Q 264.76 468.46 274.99 472.53
  Q 277.50 473.53 280.83 476.02
  C 286.12 479.98 289.38 487.79 290.07 493.94
  Q 290.29 495.98 290.48 501.75
  Q 290.52 503.19 290.49 534.49
  C 290.48 542.10 291.25 548.74 292.65 555.20
  A 0.87 0.86 83.8 0 1 291.81 556.26
  L 270.55 556.26
  A 0.51 0.51 0.0 0 1 270.05 555.86
  L 268.13 547.44
  Z
  M 268.28 517.17
  Q 258.04 520.13 244.89 523.84
  C 239.46 525.38 236.11 528.59 237.03 534.43
  C 237.61 538.14 241.38 540.88 244.93 541.35
  C 260.24 543.37 269.31 531.59 268.50 517.32
  A 0.17 0.17 0.0 0 0 268.28 517.17
  Z"
/>
<path fill="#393e45" d="
  M 396.31 518.00
  A 0.37 0.36 -2.2 0 0 395.94 518.39
  Q 396.36 524.27 399.31 529.36
  C 403.88 537.26 413.50 540.11 422.21 538.49
  Q 431.50 536.76 435.58 528.49
  A 1.63 1.62 17.1 0 1 437.29 527.59
  L 457.69 530.56
  A 0.42 0.41 12.2 0 1 458.03 531.08
  Q 456.82 535.20 454.03 539.71
  C 447.57 550.12 436.06 556.18 424.01 557.55
  C 400.26 560.24 377.67 549.14 373.16 524.12
  C 370.73 510.63 372.49 497.58 380.06 486.04
  C 391.80 468.14 418.38 465.21 436.61 472.15
  Q 442.25 474.30 447.90 479.63
  C 457.99 489.13 460.54 504.45 459.40 517.66
  A 0.36 0.36 0.0 0 1 459.04 518.00
  L 396.31 518.00
  Z
  M 396.60 501.29
  A 0.63 0.62 -74.4 0 0 397.13 502.24
  L 435.36 502.25
  A 0.49 0.49 0.0 0 0 435.85 501.68
  C 434.63 494.21 430.54 488.20 422.78 486.42
  C 413.27 484.24 402.07 487.16 398.28 497.03
  Q 396.74 501.05 396.60 501.29
  Z"
/>
<path fill="#393e45" d="
  M 703.12 556.25
  L 680.31 556.25
  A 0.56 0.55 -0.0 0 1 679.75 555.70
  L 679.75 471.30
  A 0.81 0.80 0.0 0 1 680.56 470.50
  L 703.25 470.50
  A 0.50 0.50 0.0 0 1 703.75 471.00
  L 703.75 479.61
  A 0.27 0.27 0.0 0 0 704.21 479.80
  L 708.92 475.09
  A 0.63 0.57 -81.4 0 1 709.08 474.96
  Q 725.10 465.62 742.73 470.56
  Q 760.00 475.39 762.09 494.03
  Q 762.46 497.34 762.47 501.50
  Q 762.52 528.55 762.50 555.76
  A 0.50 0.49 -90.0 0 1 762.01 556.26
  L 738.80 556.26
  A 0.56 0.56 0.0 0 1 738.24 555.69
  Q 738.32 529.44 738.25 504.25
  C 738.23 498.06 736.27 491.27 729.30 489.17
  C 721.05 486.67 710.94 488.68 706.62 496.72
  Q 703.75 502.04 703.76 510.05
  Q 703.79 543.33 703.71 555.67
  A 0.59 0.58 0.0 0 1 703.12 556.25
  Z"
/>
<path fill="#393e45" d="
  M 802.55 513.31
  Q 802.55 520.50 804.85 525.64
  Q 812.02 541.62 830.37 538.09
  C 837.75 536.68 842.04 531.23 844.27 524.41
  A 0.73 0.72 -78.1 0 1 845.03 523.91
  L 864.94 526.07
  A 1.35 1.35 0.0 0 1 866.12 527.70
  C 860.29 554.38 830.99 562.64 807.79 555.07
  C 789.12 548.99 778.53 532.53 778.53 513.30
  C 778.54 494.08 789.15 477.63 807.82 471.55
  C 831.02 464.00 860.32 472.28 866.13 498.97
  A 1.35 1.35 0.0 0 1 864.95 500.59
  L 845.04 502.74
  A 0.73 0.72 78.1 0 1 844.28 502.24
  C 842.05 495.42 837.77 489.97 830.39 488.55
  Q 812.04 485.01 804.86 500.98
  Q 802.55 506.12 802.55 513.31
  Z"
/>
<path fill="#393e45" d="
  M 336.75 483.56
  A 0.36 0.36 0.0 0 0 337.44 483.69
  Q 338.16 481.86 338.72 481.27
  Q 349.19 469.95 364.42 469.57
  A 0.56 0.56 0.0 0 1 365.00 470.13
  L 365.00 490.51
  A 0.45 0.45 0.0 0 1 364.50 490.96
  Q 364.23 490.94 359.27 491.23
  C 352.72 491.62 345.81 493.58 342.00 498.90
  C 338.47 503.84 337.98 510.33 337.99 516.00
  Q 338.02 529.80 337.99 555.65
  A 0.60 0.60 0.0 0 1 337.39 556.25
  L 314.22 556.25
  A 0.47 0.46 0.0 0 1 313.75 555.79
  L 313.75 471.25
  A 0.76 0.75 -0.0 0 1 314.51 470.50
  L 336.46 470.50
  A 0.29 0.29 0.0 0 1 336.75 470.79
  L 336.75 483.56
  Z"
/>
<path fill="#393e45" d="
  M 614.21 595.97
  L 590.62 595.97
  A 0.35 0.35 0.0 0 1 590.30 595.48
  L 609.32 552.91
  A 0.35 0.35 0.0 0 0 609.32 552.63
  L 574.30 470.98
  A 0.35 0.35 0.0 0 1 574.62 470.49
  L 600.04 470.49
  A 0.35 0.35 0.0 0 1 600.37 470.72
  L 620.40 526.07
  A 0.35 0.35 0.0 0 0 621.06 526.07
  L 642.33 470.72
  A 0.35 0.35 0.0 0 1 642.66 470.50
  L 666.52 470.50
  A 0.35 0.35 0.0 0 1 666.85 470.99
  L 614.53 595.76
  A 0.35 0.35 0.0 0 1 614.21 595.97
  Z"
/>
<path fill="#ffffff" d="
  M 396.60 501.29
  Q 396.74 501.05 398.28 497.03
  C 402.07 487.16 413.27 484.24 422.78 486.42
  C 430.54 488.20 434.63 494.21 435.85 501.68
  A 0.49 0.49 0.0 0 1 435.36 502.25
  L 397.13 502.24
  A 0.63 0.62 -74.4 0 1 396.60 501.29
  Z"
/>
<path fill="#ffffff" d="
  M 268.28 517.17
  A 0.17 0.17 0.0 0 1 268.50 517.32
  C 269.31 531.59 260.24 543.37 244.93 541.35
  C 241.38 540.88 237.61 538.14 237.03 534.43
  C 236.11 528.59 239.46 525.38 244.89 523.84
  Q 258.04 520.13 268.28 517.17
  Z"
/>
</svg>
