<svg width="314" height="316" viewBox="0 0 314 316" fill="none" xmlns="http://www.w3.org/2000/svg">
<path d="M140.32 177.93C140.354 177.904 140.38 177.87 140.397 177.831C140.415 177.792 140.422 177.75 140.419 177.707C140.416 177.665 140.403 177.624 140.38 177.587C140.358 177.551 140.327 177.521 140.29 177.5C124.003 168.687 108.553 159.37 93.94 149.55C84 142.877 74.48 135.403 65.38 127.13C53.82 116.62 45.61 105.67 41.33 90.77C31.46 56.47 48.22 20.91 80.57 6.28002C87.4167 3.18002 94.4733 1.26002 101.74 0.520015C118.513 -1.19332 134.06 2.50669 148.38 11.62C149.56 12.3667 152.96 15.0334 158.58 19.62C158.709 19.7251 158.872 19.7815 159.04 19.7797C159.207 19.7778 159.37 19.7179 159.5 19.61C160.027 19.1634 161.23 18.16 163.11 16.6C198.61 -12.89 251.76 -1.51998 272.33 39.79C284.33 63.89 281.17 93.91 264.11 115.14C260.763 119.3 256.673 123.533 251.84 127.84C229.77 147.5 204.44 163.13 178.46 177.44C178.368 177.491 178.29 177.565 178.236 177.655C178.181 177.746 178.151 177.849 178.149 177.954C178.147 178.06 178.173 178.164 178.224 178.256C178.275 178.348 178.35 178.426 178.44 178.48C198.11 190.31 216.88 203.68 233.55 219.32C233.865 219.616 234.268 219.799 234.696 219.843C235.125 219.886 235.555 219.787 235.92 219.56C250.527 210.493 265.773 208.897 281.66 214.77C286.56 216.577 291.363 219.433 296.07 223.34C309.26 234.28 315.36 251.35 313.3 268.34C311.18 285.9 299.09 301.32 282.85 308.09C266.49 314.9 247.26 312.74 233.43 302.1C219.99 291.753 213.22 278.067 213.12 261.04C213.093 256.387 213.813 251.68 215.28 246.92C216.733 242.187 218.77 237.92 221.39 234.12C221.483 233.984 221.526 233.82 221.512 233.656C221.497 233.491 221.426 233.337 221.31 233.22C217.99 229.867 213.173 225.677 206.86 220.65C191.753 208.637 175.91 197.98 159.33 188.68C159.211 188.614 159.077 188.579 158.94 188.581C158.803 188.583 158.669 188.621 158.55 188.69C144.437 196.983 134.64 202.983 129.16 206.69C120.42 212.603 112.073 218.99 104.12 225.85C104.011 225.945 103.94 226.077 103.918 226.221C103.896 226.365 103.925 226.514 104 226.64C107.38 232.23 110.36 238.37 111.73 244.84C114.717 259.027 112.327 272.263 104.56 284.55C102.99 287.04 100.85 289.21 99.02 291.72C98.6866 292.18 97.8667 293.067 96.56 294.38C86.2667 304.7 80.1066 310.843 78.08 312.81C75.3266 315.483 71.8467 316.253 67.64 315.12C67.0533 314.967 65.9833 314.117 64.43 312.57C58.99 307.17 56.1966 304.397 56.05 304.25C52.9833 301.217 51.2867 299.393 50.96 298.78C48.81 294.8 49.81 290.06 53.58 287.12C57.23 284.27 61.95 284.99 65.29 287.75C66.0233 288.35 67.88 290.137 70.86 293.11C70.9174 293.167 70.9856 293.212 71.0607 293.243C71.1357 293.273 71.2161 293.288 71.2971 293.287C71.3781 293.286 71.458 293.269 71.5324 293.237C71.6067 293.205 71.6739 293.158 71.73 293.1C76.43 288.36 79.47 285.32 80.85 283.98C84.75 280.173 87.5333 276.92 89.2 274.22C96.3533 262.64 96.37 250.37 89.25 237.41C89.2234 237.357 89.1898 237.307 89.15 237.26L84.8 231.93C84.7137 231.83 84.6163 231.743 84.51 231.67C82.7633 230.517 81.35 229.367 80.27 228.22C80.0841 228.028 79.869 227.856 79.63 227.71C67.2767 220.29 54.7767 220.18 42.13 227.38C41.2033 227.913 39.7533 229.133 37.78 231.04C32.78 235.873 28.0667 240.567 23.64 245.12C23.5306 245.236 23.4695 245.389 23.4695 245.548C23.4695 245.706 23.5306 245.857 23.64 245.97C27.64 250.05 33.01 253.65 31 260.28C29.9667 263.693 27.6533 265.783 24.06 266.55C20.76 267.257 17.7967 266.197 15.17 263.37C14.5567 262.71 10.7533 258.91 3.76 251.97C1.95333 250.177 1.01333 248.2 0.939994 246.04C0.819994 242.57 2.48 239.83 5.2 237.08C12.88 229.307 18.5333 223.667 22.16 220.16C27.79 214.73 33.93 210.12 41.16 207.3C56.26 201.42 71.48 202.52 86.82 210.6C88.0733 211.26 88.9767 211.9 89.53 212.52C89.7812 212.798 90.1314 212.966 90.5055 212.989C90.8795 213.011 91.2474 212.886 91.53 212.64C105.017 200.88 120.137 190.05 136.89 180.15C138.457 179.223 139.6 178.483 140.32 177.93ZM159.1 166.78C159.46 166.78 159.73 166.733 159.91 166.64C173.23 159.32 186.573 151.573 199.94 143.4C214.573 134.447 228.31 124.203 241.15 112.67C252.51 102.46 259.89 90.22 260.97 74.96C263.68 36.66 226.62 8.71002 190.47 21.68C184.397 23.86 178.43 27.5667 172.57 32.8C168.43 36.5 165.4 43.45 159.05 43.45C152.69 43.45 149.66 36.51 145.52 32.81C139.653 27.5834 133.683 23.8834 127.61 21.71C91.45 8.77002 54.41 36.75 57.15 75.05C58.24 90.31 65.63 102.54 77 112.74C89.8533 124.26 103.6 134.49 118.24 143.43C131.613 151.597 144.963 159.333 158.29 166.64C158.47 166.733 158.74 166.78 159.1 166.78ZM295.28 261.66C295.28 253.213 291.924 245.112 285.951 239.139C279.978 233.166 271.877 229.81 263.43 229.81C254.983 229.81 246.882 233.166 240.909 239.139C234.936 245.112 231.58 253.213 231.58 261.66C231.58 270.107 234.936 278.208 240.909 284.181C246.882 290.154 254.983 293.51 263.43 293.51C271.877 293.51 279.978 290.154 285.951 284.181C291.924 278.208 295.28 270.107 295.28 261.66Z" fill="#00989E"/>
</svg>
